M48
; DRILL file {KiCad 5.1.10} date Sun May 16 00:27:36 2021
; FORMAT={-:-/ absolute / inch / decimal}
; #@! TF.CreationDate,2021-05-16T00:27:36+02:00
; #@! TF.GenerationSoftware,Kicad,Pcbnew,5.1.10
; #@! TF.FileFunction,Plated,1,2,PTH
FMAT,2
INCH
T1C0.0157
T2C0.0320
T3C0.0394
T4C0.0512
T5C0.1181
%
G90
G05
T1
X0.5121Y-1.386
X0.5121Y-1.9766
X0.5121Y-2.1341
X0.5121Y-2.6262
X0.5121Y-2.7246
X0.5966Y-2.3847
X0.6084Y-1.637
X0.8999Y-2.444
X0.9432Y-3.0243
X1.1516Y-1.9107
X1.2483Y-2.1419
X1.2585Y-1.9762
X1.2601Y-1.386
X1.2641Y-2.7246
X1.2912Y-2.5943
X1.7014Y-2.385
X1.9806Y-1.3821
X2.0082Y-1.201
X2.0082Y-1.7915
X2.0082Y-1.949
X2.0082Y-2.5396
X2.0121Y-1.0435
X2.07Y-2.4084
X2.3981Y-2.2597
X2.7316Y-2.4136
X2.7316Y-2.6931
X2.7562Y-1.1065
X2.7562Y-1.697
X2.7562Y-1.8545
X2.7562Y-2.4451
X2.7562Y-2.5868
X2.7719Y-2.3506
X2.9626Y-1.5592
X3.1302Y-3.3191
X3.4032Y-2.3988
X3.5042Y-1.201
X3.5042Y-1.7915
X3.5042Y-1.949
X3.5042Y-2.5396
X3.5042Y-2.697
X3.52Y-2.3742
X3.9373Y-3.3545
X4.124Y-3.6863
X4.2523Y-1.2915
X4.2523Y-1.886
X4.2523Y-2.0396
X4.2523Y-2.6301
X4.2523Y-2.7876
X4.268Y-2.4726
X4.2986Y-2.2307
X4.362Y-1.5972
X4.4277Y-2.1618
X4.6396Y-2.3452
X4.7164Y-2.9844
X4.7466Y-2.2372
X4.8271Y-3.8978
X4.8664Y-2.1341
X4.9058Y-2.7167
X4.9137Y-2.7876
X4.9801Y-3.4009
X5.0091Y-2.5847
X5.1146Y-3.8872
X5.1641Y-3.0297
X5.3896Y-3.2717
X5.4166Y-3.3397
X5.4411Y-1.9692
X6.0315Y-2.8346
X6.0571Y-3.1083
X6.2171Y-2.3537
X6.2716Y-3.6997
X6.3331Y-3.16
X6.5276Y-1.7067
X6.5316Y-3.9247
X6.5652Y-2.7183
X6.5704Y-3.4124
X6.5792Y-3.3712
X6.6Y-2.88
X6.6676Y-3.2247
X6.7348Y-1.2358
X6.7928Y-2.3116
X6.8251Y-1.8215
X6.8621Y-2.4809
X6.8668Y-2.7825
X6.8704Y-1.2915
X6.8704Y-1.8821
X6.8704Y-2.6341
X6.8743Y-2.0435
X6.8989Y-2.2998
X6.8989Y-2.4606
X6.9479Y-1.5435
X6.9874Y-2.1565
X7.0056Y-1.7067
X7.0416Y-3.0967
X7.0761Y-1.6582
X7.1334Y-3.4998
X7.2496Y-1.7067
X7.3466Y-3.8897
X7.4063Y-2.1331
X7.6038Y-2.436
X7.6184Y-1.197
X7.6184Y-1.7915
X7.6184Y-1.9411
X7.6184Y-2.5396
X7.6188Y-2.69
X7.6746Y-2.2937
X7.9956Y-3.3203
X8.0006Y-3.2667
X8.1831Y-2.1987
X8.2396Y-1.9667
X8.3507Y-2.3236
X8.3664Y-1.1026
X8.3664Y-1.697
X8.3664Y-1.8545
X8.3664Y-2.449
X8.3684Y-2.5978
X9.1037Y-2.3037
X9.1145Y-1.1931
X9.1145Y-1.7915
X9.1184Y-1.949
X9.1184Y-2.5396
X9.1756Y-2.2297
X9.5874Y-2.2515
X9.8424Y-2.5236
X9.8625Y-1.3821
X9.8625Y-1.9805
X9.8625Y-2.1341
X9.8625Y-2.7246
X10.5068Y-2.9744
X10.6105Y-2.7285
X10.6121Y-2.6201
X10.6139Y-1.9766
X10.6145Y-1.386
X10.6149Y-2.1478
X10.6806Y-1.8877
X11.1216Y-1.7147
X11.1293Y-2.9744
X11.1456Y-2.4407
T2
X5.008Y-1.2576
X5.008Y-1.3576
X5.008Y-1.4576
X5.008Y-1.5576
X5.008Y-1.6576
X5.008Y-1.7576
X5.008Y-1.8576
X5.008Y-1.9576
X5.008Y-2.0576
X5.008Y-2.1576
X5.008Y-2.2576
X5.008Y-2.3576
X5.1555Y-2.6389
X5.2555Y-2.6389
X5.3555Y-2.6389
X5.4555Y-2.6389
X5.6072Y-1.2576
X5.6072Y-1.3576
X5.6072Y-1.4576
X5.6072Y-1.5576
X5.6072Y-1.6576
X5.6072Y-1.7576
X5.6072Y-1.8576
X5.6072Y-1.9576
X5.6072Y-2.0576
X5.6072Y-2.1576
X5.6072Y-2.2576
X5.6072Y-2.3576
X6.0779Y-1.2564
X6.0779Y-1.3564
X6.0779Y-1.4564
X6.0779Y-1.5564
X6.0779Y-1.6564
X6.0779Y-1.7564
X6.0779Y-1.8564
X6.0779Y-1.9564
X6.0779Y-2.0564
X6.0779Y-2.1564
X6.0779Y-2.2564
X6.0779Y-2.3564
X6.2275Y-2.6386
X6.3275Y-2.6386
X6.4275Y-2.6386
X6.5275Y-2.6386
X6.6771Y-1.2564
X6.6771Y-1.3564
X6.6771Y-1.4564
X6.6771Y-1.5564
X6.6771Y-1.6564
X6.6771Y-1.7564
X6.6771Y-1.8564
X6.6771Y-1.9564
X6.6771Y-2.0564
X6.6771Y-2.1564
X6.6771Y-2.2564
X6.6771Y-2.3564
T3
X0.6932Y-1.1441
X0.6932Y-1.715
X0.7916Y-1.715
X0.8901Y-1.1441
X0.8901Y-1.715
X2.2877Y-3.135
X5.2298Y-2.1598
X5.2298Y-2.2598
X5.2298Y-2.3598
X6.5275Y-2.1575
X6.5275Y-2.2575
X6.5275Y-2.3575
X9.3943Y-3.1348
X10.7919Y-1.1439
X10.7919Y-1.7148
X10.8903Y-1.7148
X10.9888Y-1.1439
X10.9888Y-1.7148
T4
X5.6073Y-2.4914
X5.6073Y-2.7473
X6.075Y-2.491
X6.075Y-2.7469
T3
G00X5.2199Y-2.8422
M15
G01X5.2002Y-2.8422
M16
G05
G00X5.2789Y-3.0076
M15
G01X5.2592Y-3.0076
M16
G05
G00X5.4364Y-3.0076
M15
G01X5.4167Y-3.0076
M16
G05
G00X5.5545Y-3.0076
M15
G01X5.5348Y-3.0076
M16
G05
G00X6.1399Y-3.402
M15
G01X6.13Y-3.385
M16
G05
G00X6.1255Y-2.8413
M15
G01X6.1452Y-2.8413
M16
G05
G00X6.2265Y-3.352
M15
G01X6.2166Y-3.335
M16
G05
G00X6.2436Y-2.8413
M15
G01X6.2633Y-2.8413
M16
G05
G00X6.3131Y-3.302
M15
G01X6.3032Y-3.285
M16
G05
G00X6.3997Y-3.252
M15
G01X6.3899Y-3.235
M16
G05
G00X6.4011Y-2.8413
M15
G01X6.4208Y-2.8413
M16
G05
G00X6.4601Y-3.0067
M15
G01X6.4798Y-3.0067
M16
G05
G00X6.4863Y-3.202
M15
G01X6.4765Y-3.185
M16
G05
T5
G00X6.8003Y-3.3741
M15
G01X6.7904Y-3.3571
M16
G05
G00X7.0168Y-3.7492
M15
G01X7.007Y-3.7322
M16
G05
T0
M30
