G04 #@! TF.GenerationSoftware,KiCad,Pcbnew,5.1.10*
G04 #@! TF.CreationDate,2021-05-15T20:27:15+02:00*
G04 #@! TF.ProjectId,corne-cherry,636f726e-652d-4636-9865-7272792e6b69,3.0.1*
G04 #@! TF.SameCoordinates,Original*
G04 #@! TF.FileFunction,Copper,L1,Top*
G04 #@! TF.FilePolarity,Positive*
%FSLAX46Y46*%
G04 Gerber Fmt 4.6, Leading zero omitted, Abs format (unit mm)*
G04 Created by KiCad (PCBNEW 5.1.10) date 2021-05-15 20:27:15*
%MOMM*%
%LPD*%
G01*
G04 APERTURE LIST*
G04 #@! TA.AperFunction,ComponentPad*
%ADD10R,2.000000X2.000000*%
G04 #@! TD*
G04 #@! TA.AperFunction,ComponentPad*
%ADD11C,2.000000*%
G04 #@! TD*
G04 #@! TA.AperFunction,ComponentPad*
%ADD12R,1.700000X1.700000*%
G04 #@! TD*
G04 #@! TA.AperFunction,ComponentPad*
%ADD13C,1.600000*%
G04 #@! TD*
G04 #@! TA.AperFunction,ComponentPad*
%ADD14C,1.524000*%
G04 #@! TD*
G04 #@! TA.AperFunction,ComponentPad*
%ADD15O,1.700000X1.700000*%
G04 #@! TD*
G04 #@! TA.AperFunction,ComponentPad*
%ADD16O,1.397000X1.778000*%
G04 #@! TD*
G04 #@! TA.AperFunction,ComponentPad*
%ADD17O,2.500000X1.700000*%
G04 #@! TD*
G04 #@! TA.AperFunction,ViaPad*
%ADD18C,0.600000*%
G04 #@! TD*
G04 #@! TA.AperFunction,Conductor*
%ADD19C,0.250000*%
G04 #@! TD*
G04 #@! TA.AperFunction,Conductor*
%ADD20C,0.508000*%
G04 #@! TD*
G04 #@! TA.AperFunction,Conductor*
%ADD21C,0.254000*%
G04 #@! TD*
G04 APERTURE END LIST*
D10*
X274114500Y-43555000D03*
D11*
X276614500Y-43555000D03*
X279114500Y-43555000D03*
X274114500Y-29055000D03*
X279114500Y-29055000D03*
D10*
X17607500Y-43560000D03*
D11*
X20107500Y-43560000D03*
X22607500Y-43560000D03*
X17607500Y-29060000D03*
X22607500Y-29060000D03*
D12*
X238614500Y-79625000D03*
X58107500Y-79630000D03*
G04 #@! TA.AperFunction,ComponentPad*
G36*
G01*
X160073889Y-80454280D02*
X160073889Y-80454280D01*
G75*
G02*
X161000654Y-79805353I787846J-138919D01*
G01*
X161000654Y-79805353D01*
G75*
G02*
X161649581Y-80732118I-138919J-787846D01*
G01*
X161649581Y-80732118D01*
G75*
G02*
X160722816Y-81381045I-787846J138919D01*
G01*
X160722816Y-81381045D01*
G75*
G02*
X160073889Y-80454280I138919J787846D01*
G01*
G37*
G04 #@! TD.AperFunction*
D13*
X153357500Y-79270000D03*
G04 #@! TA.AperFunction,ComponentPad*
G36*
G01*
X136771111Y-80414280D02*
X136771111Y-80414280D01*
G75*
G02*
X136122184Y-81341045I-787846J-138919D01*
G01*
X136122184Y-81341045D01*
G75*
G02*
X135195419Y-80692118I-138919J787846D01*
G01*
X135195419Y-80692118D01*
G75*
G02*
X135844346Y-79765353I787846J138919D01*
G01*
X135844346Y-79765353D01*
G75*
G02*
X136771111Y-80414280I138919J-787846D01*
G01*
G37*
G04 #@! TD.AperFunction*
X143487500Y-79230000D03*
D14*
X154378900Y-31912000D03*
X154378900Y-34452000D03*
X154378900Y-36992000D03*
X154378900Y-39532000D03*
X154378900Y-42072000D03*
X154378900Y-44612000D03*
X154378900Y-47152000D03*
X154378900Y-49692000D03*
X154378900Y-52232000D03*
X154378900Y-54772000D03*
X154378900Y-57312000D03*
X154378900Y-59852000D03*
X169598900Y-59852000D03*
X169598900Y-57312000D03*
X169598900Y-54772000D03*
X169598900Y-52232000D03*
X169598900Y-49692000D03*
X169598900Y-47152000D03*
X169598900Y-44612000D03*
X169598900Y-42072000D03*
X169598900Y-39532000D03*
X169598900Y-36992000D03*
X169598900Y-34452000D03*
X169598900Y-31912000D03*
D15*
X165797500Y-59880000D03*
X165797500Y-57340000D03*
D12*
X165797500Y-54800000D03*
D15*
X132837500Y-59940000D03*
X132837500Y-57400000D03*
D12*
X132837500Y-54860000D03*
D14*
X127203900Y-31942000D03*
X127203900Y-34482000D03*
X127203900Y-37022000D03*
X127203900Y-39562000D03*
X127203900Y-42102000D03*
X127203900Y-44642000D03*
X127203900Y-47182000D03*
X127203900Y-49722000D03*
X127203900Y-52262000D03*
X127203900Y-54802000D03*
X127203900Y-57342000D03*
X127203900Y-59882000D03*
X142423900Y-59882000D03*
X142423900Y-57342000D03*
X142423900Y-54802000D03*
X142423900Y-52262000D03*
X142423900Y-49722000D03*
X142423900Y-47182000D03*
X142423900Y-44642000D03*
X142423900Y-42102000D03*
X142423900Y-39562000D03*
X142423900Y-37022000D03*
X142423900Y-34482000D03*
X142423900Y-31942000D03*
D11*
X154304500Y-63272000D03*
X154304500Y-69772000D03*
X142424500Y-63281000D03*
X142424500Y-69781000D03*
D16*
X165797500Y-67020000D03*
X163257500Y-67020000D03*
X160717500Y-67020000D03*
X158177500Y-67020000D03*
X138568500Y-67028000D03*
X136028500Y-67028000D03*
X133488500Y-67028000D03*
X130948500Y-67028000D03*
D17*
X164337500Y-76370000D03*
X162837500Y-72170000D03*
X158837500Y-72170000D03*
X155837500Y-72170000D03*
X132334500Y-72192000D03*
X133834500Y-76392000D03*
X137834500Y-76392000D03*
X140834500Y-76392000D03*
D18*
X50307500Y-35105000D03*
X51107500Y-26505000D03*
X123607500Y-54205000D03*
X124607500Y-69005000D03*
X69382500Y-61305000D03*
X69382500Y-68405000D03*
X126493737Y-86382353D03*
X124807500Y-70805000D03*
X43215500Y-60580000D03*
X60912600Y-57397000D03*
X109185300Y-56660400D03*
X117847010Y-59569010D03*
X22857500Y-62076500D03*
X23956290Y-76815990D03*
X136896700Y-83101800D03*
X129911700Y-98735500D03*
X104748517Y-93631010D03*
X110795800Y-40569010D03*
X112463101Y-54909001D03*
X13007500Y-35205000D03*
X13007500Y-50205000D03*
X13007500Y-54205000D03*
X13007500Y-69205000D03*
X13007500Y-66705000D03*
X32007500Y-35205000D03*
X32107500Y-69205000D03*
X31707500Y-54405000D03*
X31964840Y-50194907D03*
X32796949Y-65894449D03*
X51007500Y-30505000D03*
X51007500Y-45505000D03*
X51007500Y-49505000D03*
X51007500Y-64505000D03*
X52577078Y-61174578D03*
X70007500Y-28105000D03*
X70007500Y-43105000D03*
X70007500Y-47105000D03*
X70007500Y-62105000D03*
X70407500Y-59705000D03*
X70007500Y-65705000D03*
X79507500Y-84305000D03*
X89007500Y-30505000D03*
X89007500Y-45505000D03*
X89007500Y-49505000D03*
X89007500Y-64505000D03*
X89407500Y-60305000D03*
X89007500Y-68505000D03*
X100007500Y-85205000D03*
X108007500Y-32805000D03*
X108007500Y-47905000D03*
X108007500Y-51805000D03*
X108007500Y-66805000D03*
X108407504Y-62805000D03*
X108007500Y-70805000D03*
X122607500Y-99005000D03*
X127232000Y-65652000D03*
X131169000Y-76955000D03*
X173357500Y-46265000D03*
X171063762Y-31389024D03*
X188119700Y-54180000D03*
X177478999Y-54775001D03*
X175232500Y-58415010D03*
X175232500Y-62500000D03*
X282684700Y-75550000D03*
X266873200Y-75550000D03*
X172537500Y-58715000D03*
X167110558Y-85628058D03*
X166411500Y-77717000D03*
X269607500Y-35205000D03*
X269507500Y-69305000D03*
X269617500Y-54555000D03*
X269592510Y-50205000D03*
X269547500Y-66550000D03*
X250507500Y-35105000D03*
X250507500Y-50305000D03*
X250507500Y-54205000D03*
X250507500Y-69205000D03*
X249997500Y-64100010D03*
X231507500Y-30305000D03*
X231507500Y-45505000D03*
X231607500Y-49505000D03*
X231607500Y-64505000D03*
X231234449Y-58513051D03*
X212507500Y-28005000D03*
X212507500Y-43105000D03*
X212507500Y-47105000D03*
X212507500Y-62205000D03*
X203087500Y-84335000D03*
X212557500Y-65985000D03*
X212107500Y-59020000D03*
X193507500Y-30405000D03*
X193507500Y-45505000D03*
X193507500Y-49305000D03*
X193507500Y-64505000D03*
X193517500Y-68325000D03*
X181187500Y-88895000D03*
X193137500Y-61875000D03*
X174507500Y-32805000D03*
X174507500Y-47805000D03*
X174607500Y-51905000D03*
X174507500Y-66905000D03*
X174417500Y-70675000D03*
X166887500Y-86675000D03*
X174297500Y-63015000D03*
X194935700Y-58260600D03*
X207851600Y-55847600D03*
X233061100Y-56635000D03*
X243521110Y-57189010D03*
X157915200Y-59784600D03*
X283098501Y-61994999D03*
X137582500Y-84829000D03*
X15154500Y-60572000D03*
X15453800Y-41580000D03*
X119795500Y-75805000D03*
X120564500Y-56825500D03*
X176475500Y-39205000D03*
X179733800Y-42118900D03*
X159299500Y-93973000D03*
X178857500Y-78656800D03*
X165903070Y-99687570D03*
X186604500Y-98799000D03*
X138204800Y-50018300D03*
X29251500Y-48532400D03*
X86442001Y-60930001D03*
X75250900Y-39604300D03*
X271288100Y-47948200D03*
X209286700Y-49954800D03*
X203216100Y-82974800D03*
X169357900Y-81908000D03*
X156962700Y-81908000D03*
X165801900Y-43350800D03*
X177943100Y-43350800D03*
X184140700Y-43350800D03*
X282489500Y-43554000D03*
D19*
X50307500Y-27305000D02*
X51107500Y-26505000D01*
X50307500Y-35105000D02*
X50307500Y-27305000D01*
X124607500Y-55205000D02*
X124607500Y-69005000D01*
X123607500Y-54205000D02*
X124607500Y-55205000D01*
X69382500Y-61305000D02*
X69382500Y-68405000D01*
X126193738Y-86082354D02*
X125984854Y-86082354D01*
X126493737Y-86382353D02*
X126193738Y-86082354D01*
X124782499Y-70830001D02*
X124807500Y-70805000D01*
X124782499Y-84879999D02*
X124782499Y-70830001D01*
X125984854Y-86082354D02*
X124782499Y-84879999D01*
D20*
X142423900Y-37022000D02*
X142423900Y-39562000D01*
X129743900Y-37022000D02*
X127203900Y-34482000D01*
X142423900Y-37022000D02*
X129743900Y-37022000D01*
X132837500Y-49148400D02*
X132837500Y-54860000D01*
X142423900Y-39562000D02*
X132837500Y-49148400D01*
X138677500Y-67028000D02*
X142424500Y-63281000D01*
X138568500Y-67028000D02*
X138677500Y-67028000D01*
X144089911Y-41228011D02*
X142423900Y-39562000D01*
X144089911Y-61615589D02*
X144089911Y-41228011D01*
X142424500Y-63281000D02*
X144089911Y-61615589D01*
X51369421Y-65259001D02*
X53572000Y-63056422D01*
X47894501Y-65259001D02*
X51369421Y-65259001D01*
X43215500Y-60580000D02*
X47894501Y-65259001D01*
X53572000Y-63056422D02*
X53572000Y-58628900D01*
X53572000Y-58628900D02*
X54803900Y-57397000D01*
X54803900Y-57397000D02*
X60912600Y-57397000D01*
X60912600Y-57397000D02*
X60912600Y-57397000D01*
X112093910Y-59569010D02*
X117847010Y-59569010D01*
X109185300Y-56660400D02*
X112093910Y-59569010D01*
X117847010Y-59569010D02*
X117847010Y-59569010D01*
X22711000Y-75570700D02*
X23956290Y-76815990D01*
X20693499Y-70660077D02*
X22711000Y-72677578D01*
X22711000Y-72677578D02*
X22711000Y-75570700D01*
X20693499Y-64240501D02*
X20693499Y-70660077D01*
X22857500Y-62076500D02*
X20693499Y-64240501D01*
X136896700Y-83101800D02*
X133801501Y-86196999D01*
X133165171Y-95482029D02*
X129911700Y-98735500D01*
X129911700Y-98735500D02*
X129911700Y-98735500D01*
X117935600Y-95941500D02*
X122952510Y-100958410D01*
X110912500Y-95941500D02*
X117935600Y-95941500D01*
X109866240Y-94895240D02*
X110912500Y-95941500D01*
X108221959Y-94895240D02*
X109866240Y-94895240D01*
X104748517Y-93631010D02*
X104748517Y-93631010D01*
X104728510Y-93631010D02*
X104748517Y-93631010D01*
X104748517Y-93631010D02*
X108221959Y-94895240D01*
X129795990Y-67695885D02*
X131879605Y-69779500D01*
X129795990Y-60441510D02*
X129795990Y-67695885D01*
X132837500Y-57400000D02*
X129795990Y-60441510D01*
X131879605Y-69779500D02*
X134128100Y-69779500D01*
X134128100Y-69779500D02*
X134128100Y-69779500D01*
X134128100Y-69779500D02*
X135474300Y-69779500D01*
X136028500Y-69225300D02*
X136028500Y-67028000D01*
X135474300Y-69779500D02*
X136028500Y-69225300D01*
X134128100Y-76098400D02*
X133834500Y-76392000D01*
X134128100Y-69779500D02*
X134128100Y-76098400D01*
X122952510Y-100958410D02*
X122952510Y-100983810D01*
X122952510Y-100983810D02*
X123460100Y-101491400D01*
X129911700Y-98735500D02*
X129911700Y-100577000D01*
X128997300Y-101491400D02*
X123460100Y-101491400D01*
X129911700Y-100577000D02*
X128997300Y-101491400D01*
X116309421Y-54909001D02*
X112463101Y-54909001D01*
X117611501Y-53606921D02*
X116309421Y-54909001D01*
X117611501Y-51203079D02*
X117611501Y-53606921D01*
X110795800Y-44387378D02*
X117611501Y-51203079D01*
X110795800Y-40569010D02*
X110795800Y-44387378D01*
X112463101Y-54909001D02*
X112463101Y-54909001D01*
X133801501Y-91429512D02*
X133801501Y-86196999D01*
X133165171Y-92065842D02*
X133801501Y-91429512D01*
X133165171Y-95482029D02*
X133165171Y-92065842D01*
D19*
X13007500Y-35205000D02*
X13007500Y-50205000D01*
X13007500Y-54205000D02*
X13007500Y-57305000D01*
X13007500Y-66705000D02*
X13007500Y-69205000D01*
X13007500Y-57305000D02*
X13007500Y-66705000D01*
X32307500Y-69005000D02*
X32107500Y-69205000D01*
X31707500Y-55805000D02*
X32307500Y-56405000D01*
X31707500Y-54405000D02*
X31707500Y-55805000D01*
X32264839Y-49894908D02*
X31964840Y-50194907D01*
X32007500Y-35205000D02*
X32407500Y-35605000D01*
X32407500Y-35605000D02*
X32407500Y-49752247D01*
X32407500Y-49752247D02*
X32264839Y-49894908D01*
X32307500Y-66205000D02*
X32307500Y-69005000D01*
X32307500Y-56405000D02*
X32307500Y-66205000D01*
X32486398Y-66205000D02*
X32496950Y-66194448D01*
X32496950Y-66194448D02*
X32796949Y-65894449D01*
X32307500Y-66205000D02*
X32486398Y-66205000D01*
X51007500Y-30505000D02*
X51007500Y-45505000D01*
X51007500Y-49505000D02*
X51007500Y-60505000D01*
X51007500Y-60505000D02*
X51007500Y-64505000D01*
X51007500Y-60505000D02*
X51677078Y-61174578D01*
X52152814Y-61174578D02*
X52577078Y-61174578D01*
X51677078Y-61174578D02*
X52152814Y-61174578D01*
X70107501Y-60004999D02*
X70407500Y-59705000D01*
X70007500Y-60005000D02*
X70107501Y-60004999D01*
X70007500Y-47105000D02*
X70007500Y-60005000D01*
X70007500Y-60005000D02*
X70007500Y-62105000D01*
X70007500Y-74505000D02*
X79507500Y-84005000D01*
X79507500Y-84005000D02*
X79507500Y-84305000D01*
X70007500Y-65705000D02*
X70007500Y-74505000D01*
X70007500Y-28105000D02*
X69682488Y-28430012D01*
X69682488Y-42779988D02*
X69707501Y-42805001D01*
X69682488Y-28430012D02*
X69682488Y-42779988D01*
X69707501Y-42805001D02*
X70007500Y-43105000D01*
X89007500Y-30505000D02*
X89007500Y-45505000D01*
X89007500Y-62305000D02*
X89007500Y-64505000D01*
X89007500Y-49505000D02*
X89007500Y-62305000D01*
X89007500Y-61105000D02*
X89007500Y-62305000D01*
X89407500Y-60305000D02*
X89007500Y-61105000D01*
X89007500Y-74205000D02*
X89007500Y-68505000D01*
X100007500Y-85205000D02*
X89007500Y-74205000D01*
X108007500Y-51805000D02*
X108007500Y-66805000D01*
D21*
X108107505Y-63104999D02*
X108407504Y-62805000D01*
X108007500Y-63105000D02*
X108107505Y-63104999D01*
D19*
X111807500Y-83805000D02*
X119407500Y-83805000D01*
X119407500Y-83805000D02*
X122607500Y-87005000D01*
X108007500Y-80005000D02*
X111807500Y-83805000D01*
X122607500Y-87005000D02*
X122607500Y-99005000D01*
X108007500Y-70805000D02*
X108007500Y-80005000D01*
X108007500Y-47480736D02*
X108007500Y-47905000D01*
X108237500Y-33035000D02*
X108237500Y-47250736D01*
X108007500Y-32805000D02*
X108237500Y-33035000D01*
X108237500Y-47250736D02*
X108007500Y-47480736D01*
X126440523Y-74995701D02*
X128399822Y-76955000D01*
X126440523Y-66443477D02*
X126440523Y-74995701D01*
X127232000Y-65652000D02*
X126440523Y-66443477D01*
X128399822Y-76955000D02*
X131169000Y-76955000D01*
X131169000Y-76955000D02*
X131169000Y-76955000D01*
D21*
X125534502Y-34193998D02*
X125534502Y-40554028D01*
X125534502Y-40554028D02*
X125584512Y-40604038D01*
X125534502Y-41255972D02*
X125534502Y-75370986D01*
X125534502Y-75370986D02*
X128463516Y-78300000D01*
X126514500Y-33214000D02*
X125534502Y-34193998D01*
X141157500Y-33210000D02*
X142425500Y-31942000D01*
X125584512Y-40604038D02*
X125584512Y-41205962D01*
X125584512Y-41205962D02*
X125534502Y-41255972D01*
X134711500Y-33214000D02*
X126514500Y-33214000D01*
X141155900Y-33214000D02*
X134711500Y-33214000D01*
D19*
X140834500Y-76577000D02*
X143487500Y-79230000D01*
X140834500Y-76392000D02*
X140834500Y-76577000D01*
X131841716Y-81678200D02*
X128463516Y-78300000D01*
X141039300Y-81678200D02*
X131841716Y-81678200D01*
X143487500Y-79230000D02*
X141039300Y-81678200D01*
D21*
X135807500Y-76040000D02*
X142066500Y-69781000D01*
X135807500Y-76819968D02*
X135807500Y-76040000D01*
X125988513Y-41444029D02*
X125988513Y-75182929D01*
X134787468Y-77840000D02*
X135807500Y-76819968D01*
X125988513Y-75182929D02*
X128645584Y-77840000D01*
X142066500Y-69781000D02*
X142424500Y-69781000D01*
X126038522Y-41394020D02*
X125988513Y-41444029D01*
X128645584Y-77840000D02*
X134787468Y-77840000D01*
X126038522Y-38187378D02*
X126038522Y-41394020D01*
X127203900Y-37022000D02*
X126038522Y-38187378D01*
X134186999Y-66329501D02*
X133488500Y-67028000D01*
X142423900Y-44642000D02*
X140558511Y-46507389D01*
X134808489Y-65708011D02*
X134186999Y-66329501D01*
X140558510Y-62742058D02*
X137592557Y-65708011D01*
X137592557Y-65708011D02*
X134808489Y-65708011D01*
X140558511Y-46507389D02*
X140558510Y-62742058D01*
X137404500Y-65254000D02*
X132704500Y-65254000D01*
X132704500Y-65254000D02*
X130948500Y-67010000D01*
X140104500Y-44421400D02*
X140104500Y-62554000D01*
X140104500Y-62554000D02*
X137404500Y-65254000D01*
X130948500Y-67010000D02*
X130948500Y-67028000D01*
X142423900Y-42102000D02*
X140104500Y-44421400D01*
D19*
X173982501Y-34307763D02*
X171063762Y-31389024D01*
X173982501Y-45639999D02*
X173982501Y-34307763D01*
X173357500Y-46265000D02*
X173982501Y-45639999D01*
X187524699Y-54775001D02*
X177478999Y-54775001D01*
X188119700Y-54180000D02*
X187524699Y-54775001D01*
X177478999Y-54775001D02*
X177478999Y-54775001D01*
X175232500Y-58415010D02*
X175232500Y-62500000D01*
X267473201Y-76150001D02*
X266873200Y-75550000D01*
X282084699Y-76150001D02*
X267473201Y-76150001D01*
X282684700Y-75550000D02*
X282084699Y-76150001D01*
X172537500Y-80201116D02*
X167110558Y-85628058D01*
X172537500Y-58715000D02*
X172537500Y-80201116D01*
D21*
X155837500Y-72170000D02*
X155837500Y-73170000D01*
X170646488Y-76198944D02*
X167954443Y-78890989D01*
X170646488Y-60155982D02*
X170646488Y-76198944D01*
X170687901Y-60114569D02*
X170646488Y-60155982D01*
X170687901Y-35537001D02*
X170687901Y-60114569D01*
X155837500Y-73760000D02*
X155837500Y-72170000D01*
D19*
X170687901Y-33001001D02*
X169598900Y-31912000D01*
X170687901Y-35537001D02*
X170687901Y-33001001D01*
X169577500Y-31890600D02*
X169598900Y-31912000D01*
X155837500Y-76790000D02*
X153357500Y-79270000D01*
X155837500Y-73760000D02*
X155837500Y-76790000D01*
X153736511Y-78890989D02*
X153357500Y-79270000D01*
X167954443Y-78890989D02*
X153736511Y-78890989D01*
D21*
X169603900Y-42073000D02*
X167674500Y-44002400D01*
X158039500Y-66680000D02*
X158039500Y-67015000D01*
X164648511Y-65170989D02*
X159548511Y-65170989D01*
X167674500Y-44002400D02*
X167674500Y-62145000D01*
X159548511Y-65170989D02*
X158039500Y-66680000D01*
X167674500Y-62145000D02*
X164648511Y-65170989D01*
X161969500Y-65625000D02*
X160579500Y-67015000D01*
X168128511Y-46088389D02*
X168128511Y-62390989D01*
X164894500Y-65625000D02*
X161969500Y-65625000D01*
X169603900Y-44613000D02*
X168128511Y-46088389D01*
X168128511Y-62390989D02*
X164894500Y-65625000D01*
D19*
X169598900Y-71406598D02*
X166411500Y-74593998D01*
X169598900Y-59852000D02*
X169598900Y-71406598D01*
X166411500Y-74593998D02*
X166411500Y-77717000D01*
X166411500Y-77717000D02*
X166411500Y-77717000D01*
D21*
X154057500Y-70019000D02*
X154304500Y-69772000D01*
D19*
X154378900Y-36992000D02*
X152746300Y-38624600D01*
X152746300Y-68213800D02*
X154304500Y-69772000D01*
X152746300Y-38624600D02*
X152746300Y-68213800D01*
X269907500Y-68905000D02*
X269507500Y-69305000D01*
X269897500Y-64485000D02*
X269907500Y-68905000D01*
X269897500Y-64485000D02*
X269917499Y-64465001D01*
X269917499Y-64465001D02*
X269917499Y-54854999D01*
X269917499Y-54854999D02*
X269617500Y-54555000D01*
X269607500Y-35205000D02*
X269907500Y-35505000D01*
X269907500Y-35505000D02*
X269907500Y-49890010D01*
X269907500Y-49890010D02*
X269892509Y-49905001D01*
X269892509Y-49905001D02*
X269592510Y-50205000D01*
X269899204Y-66198296D02*
X269547500Y-66550000D01*
X269899204Y-64486704D02*
X269899204Y-66198296D01*
X269897500Y-64485000D02*
X269899204Y-64486704D01*
X250507500Y-35105000D02*
X250507500Y-50305000D01*
X250507500Y-64185746D02*
X250421764Y-64100010D01*
X250507500Y-64335000D02*
X250507500Y-64185746D01*
X250421764Y-64100010D02*
X249997500Y-64100010D01*
X250507500Y-54205000D02*
X250507500Y-64335000D01*
X250507500Y-64335000D02*
X250507500Y-69205000D01*
X231507500Y-30305000D02*
X231507500Y-45505000D01*
X231607500Y-49505000D02*
X231607500Y-59795000D01*
X231607500Y-59795000D02*
X231607500Y-64505000D01*
X231607500Y-58886102D02*
X231534448Y-58813050D01*
X231607500Y-59795000D02*
X231607500Y-58886102D01*
X231534448Y-58813050D02*
X231234449Y-58513051D01*
X212507500Y-28005000D02*
X212507500Y-43105000D01*
X212507500Y-62005000D02*
X212507500Y-62205000D01*
X212557500Y-74865000D02*
X212557500Y-65985000D01*
X203087500Y-84335000D02*
X212557500Y-74865000D01*
X212507500Y-47105000D02*
X212507500Y-60295000D01*
X212507500Y-60295000D02*
X212507500Y-62005000D01*
X212107500Y-59240000D02*
X212107500Y-59020000D01*
X212507500Y-59640000D02*
X212107500Y-59240000D01*
X212507500Y-60295000D02*
X212507500Y-59640000D01*
X194007500Y-45005000D02*
X193507500Y-45505000D01*
X194007500Y-30905000D02*
X194007500Y-45005000D01*
X193507500Y-30405000D02*
X194007500Y-30905000D01*
X181287500Y-88895000D02*
X181187500Y-88895000D01*
X193517500Y-76665000D02*
X181287500Y-88895000D01*
X193517500Y-68325000D02*
X193517500Y-76665000D01*
X193507500Y-49305000D02*
X193507500Y-63715000D01*
X193507500Y-63715000D02*
X193507500Y-64505000D01*
X193137500Y-63345000D02*
X193137500Y-62299264D01*
X193507500Y-63715000D02*
X193137500Y-63345000D01*
X193137500Y-62299264D02*
X193137500Y-61875000D01*
X174507500Y-32805000D02*
X174507500Y-47805000D01*
X174607500Y-66805000D02*
X174507500Y-66905000D01*
X174417500Y-70675000D02*
X174417500Y-79205000D01*
X166947500Y-86675000D02*
X166887500Y-86675000D01*
X174417500Y-79205000D02*
X166947500Y-86675000D01*
X174607500Y-51905000D02*
X174607500Y-64475000D01*
X174607500Y-64475000D02*
X174607500Y-66805000D01*
X174607500Y-63295000D02*
X174327500Y-63015000D01*
X174327500Y-63015000D02*
X174297500Y-63015000D01*
X174607500Y-64475000D02*
X174607500Y-63295000D01*
D20*
X163257500Y-71750000D02*
X162837500Y-72170000D01*
X157024990Y-67687885D02*
X157024990Y-66112510D01*
X158968605Y-69631500D02*
X157024990Y-67687885D01*
X163257500Y-69631500D02*
X158968605Y-69631500D01*
X157024990Y-66112510D02*
X165797500Y-57340000D01*
X163257500Y-67020000D02*
X163257500Y-69631500D01*
X163257500Y-69631500D02*
X163257500Y-71750000D01*
X154304500Y-67637000D02*
X158837500Y-72170000D01*
X154304500Y-63272000D02*
X154304500Y-67637000D01*
X194935700Y-58260600D02*
X205438600Y-58260600D01*
X205438600Y-58260600D02*
X207851600Y-55847600D01*
X207851600Y-55847600D02*
X207851600Y-55847600D01*
X233615110Y-57189010D02*
X243521110Y-57189010D01*
X233061100Y-56635000D02*
X233615110Y-57189010D01*
X243521110Y-57189010D02*
X243521110Y-57189010D01*
X160812900Y-59784600D02*
X165797500Y-54800000D01*
X157915200Y-59784600D02*
X160812900Y-59784600D01*
X166874900Y-54800000D02*
X167093490Y-54581410D01*
X165797500Y-54800000D02*
X166874900Y-54800000D01*
X167093490Y-42037410D02*
X169598900Y-39532000D01*
X167093490Y-54581410D02*
X167093490Y-42037410D01*
X283098501Y-50039001D02*
X283098501Y-61994999D01*
X276614500Y-43555000D02*
X283098501Y-50039001D01*
X283098501Y-61994999D02*
X283098501Y-61994999D01*
D19*
X137582500Y-84829000D02*
X137582500Y-84829000D01*
X66013300Y-79630000D02*
X58107500Y-79630000D01*
X96739300Y-98875200D02*
X94605700Y-96741600D01*
X137282501Y-85128999D02*
X137282501Y-98540199D01*
X123784258Y-102634400D02*
X120361300Y-99211442D01*
X110672667Y-96520510D02*
X108317977Y-98875200D01*
X137282501Y-98540199D02*
X133188300Y-102634400D01*
X133188300Y-102634400D02*
X123784258Y-102634400D01*
X108317977Y-98875200D02*
X96739300Y-98875200D01*
X137582500Y-84829000D02*
X137282501Y-85128999D01*
X120361300Y-99211442D02*
X120361300Y-99186042D01*
X120361300Y-99186042D02*
X117695768Y-96520510D01*
X83124900Y-96741600D02*
X66013300Y-79630000D01*
X117695768Y-96520510D02*
X110672667Y-96520510D01*
X94605700Y-96741600D02*
X83124900Y-96741600D01*
X16302501Y-55069997D02*
X16302501Y-55613999D01*
X18122501Y-53249997D02*
X16302501Y-55069997D01*
X16302501Y-55613999D02*
X15154500Y-56762000D01*
X15154500Y-56762000D02*
X15154500Y-60572000D01*
X15154500Y-60572000D02*
X15154500Y-60572000D01*
X18122501Y-51363999D02*
X18122501Y-53249997D01*
X15453800Y-48695298D02*
X18122501Y-51363999D01*
X15453800Y-41580000D02*
X15453800Y-48695298D01*
X121462501Y-74137999D02*
X121462501Y-57723501D01*
X119795500Y-75805000D02*
X121462501Y-74137999D01*
X121462501Y-57723501D02*
X120564500Y-56825500D01*
X120564500Y-56825500D02*
X120564500Y-56825500D01*
X179733800Y-42118900D02*
X177574800Y-42118900D01*
X176475500Y-41019600D02*
X176475500Y-39205000D01*
X177574800Y-42118900D02*
X176475500Y-41019600D01*
X167665651Y-92774999D02*
X178857500Y-81583150D01*
X160497501Y-92774999D02*
X167665651Y-92774999D01*
X159299500Y-93973000D02*
X160497501Y-92774999D01*
X178857500Y-81583150D02*
X178857500Y-78656800D01*
X178857500Y-78656800D02*
X178857500Y-78656800D01*
X167039910Y-100824410D02*
X184579090Y-100824410D01*
X165903070Y-99687570D02*
X167039910Y-100824410D01*
X184579090Y-100824410D02*
X186604500Y-98799000D01*
X186604500Y-98799000D02*
X186604500Y-98799000D01*
X138204800Y-50018300D02*
X138204800Y-50018300D01*
X143510901Y-41580239D02*
X143510901Y-56254999D01*
X142945661Y-41014999D02*
X143510901Y-41580239D01*
X143510901Y-56254999D02*
X142423900Y-57342000D01*
X141902139Y-41014999D02*
X142945661Y-41014999D01*
X139652490Y-43264648D02*
X141902139Y-41014999D01*
X139652490Y-48570610D02*
X139652490Y-43264648D01*
X138204800Y-50018300D02*
X139652490Y-48570610D01*
X17357500Y-42709000D02*
X18122501Y-43474001D01*
X29251500Y-48532400D02*
X29251500Y-48532400D01*
X21802501Y-47755001D02*
X17607500Y-43560000D01*
X28474101Y-47755001D02*
X21802501Y-47755001D01*
X29251500Y-48532400D02*
X28474101Y-47755001D01*
X75283503Y-63400001D02*
X72036402Y-60152900D01*
X83972001Y-63400001D02*
X75283503Y-63400001D01*
X86442001Y-60930001D02*
X83972001Y-63400001D01*
X72036402Y-60152900D02*
X72036402Y-50972198D01*
X72036402Y-50972198D02*
X74196800Y-48811800D01*
X74196800Y-46916702D02*
X75250900Y-45862602D01*
X74196800Y-48811800D02*
X74196800Y-46916702D01*
X75250900Y-45862602D02*
X75250900Y-39604300D01*
X75250900Y-39604300D02*
X75250900Y-39604300D01*
X272864500Y-43555000D02*
X271288100Y-45131400D01*
X274114500Y-43555000D02*
X272864500Y-43555000D01*
X271288100Y-45131400D02*
X271288100Y-47948200D01*
X271288100Y-47948200D02*
X271288100Y-47948200D01*
X209286700Y-49954800D02*
X209286700Y-60318000D01*
X209286700Y-60318000D02*
X209286700Y-76904200D01*
X209286700Y-76904200D02*
X203216100Y-82974800D01*
X203216100Y-82974800D02*
X203216100Y-82974800D01*
X169357900Y-81908000D02*
X160511534Y-81908000D01*
X160511534Y-81908000D02*
X156962700Y-81908000D01*
X156962700Y-81908000D02*
X156962700Y-81908000D01*
X164028279Y-55750379D02*
X164028279Y-55741621D01*
X155140899Y-59090001D02*
X160688657Y-59090001D01*
X160688657Y-59090001D02*
X164028279Y-55750379D01*
X154378900Y-59852000D02*
X155140899Y-59090001D01*
X165801900Y-51936000D02*
X165801900Y-43350800D01*
X164028279Y-53709621D02*
X165801900Y-51936000D01*
X164028279Y-55750379D02*
X164028279Y-53709621D01*
X165801900Y-43350800D02*
X165801900Y-43350800D01*
X177943100Y-43350800D02*
X184140700Y-43350800D01*
X184140700Y-43350800D02*
X184140700Y-43350800D01*
X279115500Y-43554000D02*
X279114500Y-43555000D01*
X282489500Y-43554000D02*
X279115500Y-43554000D01*
M02*
